# xmcd
#
# Track frame offsets:
#	150
#	10345
#	23071
#	38908
#	50718
#	61191
#	71947
#	84052
#	93052
#	104870
#	116600
#	125593
#	138065
#	153065
#	166621
#	180288
#	192583
#	206752
#	217903
#	230503
#
# Disc length: 3178 seconds
#
# Revision: 1
# Processed by: cddbd v1.5.2PL0 Copyright (c) Steve Scherf et al.
# Submitted via: EasyCDDAExtractor 10.0.2.1
#
DISCID=070c6814
DTITLE=Irmãs freitas - As 20 mais
DYEAR=1900
DGENRE=Country
TTITLE0=Me leva
TTITLE1=Pedido a santo antonio
TTITLE2=Preciso chorar
TTITLE3=O amor existe
TTITLE4=Canoeira do araguaia
TTITLE5=Jovem diferente
TTITLE6=Velho Cuiaba
TTITLE7=Amando escondido
TTITLE8=Belezas do araguaia
TTITLE9=Me escreva agora
TTITLE10=Vestido branco
TTITLE11=A filha que volta
TTITLE12=Me escreva agora
TTITLE13=Fique comigo
TTITLE14=Foi feitiço
TTITLE15=Solidão
TTITLE16=Borboleta
TTITLE17=Eu vivo a sofrer
TTITLE18=Bebendo e chorando
TTITLE19=Nosso amor está morrendo
EXTD=
EXTT0=
EXTT1=
EXTT2=
EXTT3=
EXTT4=
EXTT5=
EXTT6=
EXTT7=
EXTT8=
EXTT9=
EXTT10=
EXTT11=
EXTT12=
EXTT13=
EXTT14=
EXTT15=
EXTT16=
EXTT17=
EXTT18=
EXTT19=
PLAYORDER=
